/* XPM */
static char *result[] = {
/* columns rows colors chars-per-pixel */
"32 32 145 2 ",
"   c #270E2F",
".  c #231627",
"X  c #28182D",
"o  c #2A0D33",
"O  c #2E0D39",
"+  c #320C3F",
"@  c #2B1437",
"#  c #271A32",
"$  c #2B1C38",
"%  c #331D3A",
"&  c #262531",
"*  c #292339",
"=  c #2C2B3D",
"-  c #312D32",
";  c #3D373F",
":  c #350B42",
">  c #380A47",
",  c #3E094F",
"<  c #391245",
"1  c #3B1D45",
"2  c #3D2445",
"3  c #3B2C4B",
"4  c #2D3043",
"5  c #373D47",
"6  c #3E324F",
"7  c #373D4D",
"8  c #383E4C",
"9  c #402F4D",
"0  c #41364B",
"q  c #4C285C",
"w  c #4D3F52",
"e  c #522460",
"r  c #3D424C",
"t  c #3D4454",
"y  c #3E465A",
"u  c #3F4762",
"i  c #4F4253",
"p  c #454C5E",
"a  c #494F5C",
"s  c #4C5157",
"d  c #4C535D",
"f  c #5A525D",
"g  c #444B64",
"h  c #484B66",
"j  c #4B5362",
"k  c #47506B",
"l  c #4C556D",
"z  c #535A67",
"x  c #4B5673",
"c  c #4F5A77",
"v  c #555E74",
"b  c #535E78",
"n  c #64536F",
"m  c #725177",
"M  c #5E6269",
"N  c #576176",
"B  c #5A6477",
"V  c #56617B",
"C  c #5B657D",
"Z  c #6C666E",
"A  c DimGray",
"S  c #646A77",
"D  c gray48",
"F  c #7B5481",
"G  c #566281",
"H  c #5E6B86",
"J  c #5F6C8B",
"K  c #6A7486",
"L  c #62708F",
"P  c #767983",
"I  c #717C8E",
"U  c #657392",
"Y  c #6A7795",
"T  c #6B7894",
"R  c #650DEF",
"E  c #6616EC",
"W  c #6D0AF3",
"Q  c #6F3BE1",
"!  c #9F3EB1",
"~  c #AC4EB8",
"^  c #9F66A2",
"/  c #8651E3",
"(  c #9868E3",
")  c #AA76E6",
"_  c #C048D6",
"`  c #D05DDF",
"'  c #7F848C",
"]  c #7D8191",
"[  c #73819E",
"{  c #7F8899",
"}  c #7583A0",
"|  c #7D8AA6",
" . c #878289",
".. c #8C8B8C",
"X. c #858994",
"o. c gray57",
"O. c #808DA2",
"+. c #808EA9",
"@. c #8691A5",
"#. c #8594AE",
"$. c #9198A3",
"%. c #8997B1",
"&. c #8C9BB4",
"*. c #9DA2AB",
"=. c #96A3BA",
"-. c #9AA7BE",
";. c #A7A5A8",
":. c #A8A6A8",
">. c #ABB1BC",
",. c #B3B1B4",
"<. c #BCBBBC",
"1. c #A1AEC4",
"2. c #ACB8CB",
"3. c #B4BBC6",
"4. c #B3BDCF",
"5. c #C987C5",
"6. c #CE87CA",
"7. c #D897DB",
"8. c #E5A4DE",
"9. c #D398E3",
"0. c #E798E2",
"q. c #F1B2E9",
"w. c #BEC1C6",
"e. c #BBC2CE",
"r. c #B7C1D2",
"t. c #BDC6D5",
"y. c #CCCBCC",
"u. c #C5CDDB",
"i. c #C8CED8",
"p. c #CAD2DE",
"a. c #D5D5D6",
"s. c #CCD3E0",
"d. c #D0D7E2",
"f. c #D3D9E4",
"g. c #D8DEE7",
"h. c #DCE0E7",
"j. c gray89",
"k. c #E3E5EB",
"l. c #E5E9EF",
"z. c #EEEEEF",
"x. c #EBEEF2",
"c. c #EFF1F5",
"v. c #F3F4F6",
"b. c #F5F7F9",
"n. c #FEFEFE",
/* pixels */
", , , , , , , , , , , , , , , , , , , , , , , , , , , , , , , , ",
", , , , , , , , , , , , , , , , , , , , , , , , , , , , , , , , ",
", , , , , , , , , >   @ o   o > , , , , , , , , , , , , , , , , ",
", , , , , , , , , > ; <.y.y.<.0 % > , , , , , , , , , , , , , , ",
", , , , , , , , , , < Z k.b.v.j.,.9 , , , , , , , , , , , , , , ",
", , , , , , , , , , , : Z e.p.x.v.:.2 > , , , , , , , , , , , , ",
", , , , , , , , , , , ,   X.4.u.a.v.Z : , , , , , , , , , , , , ",
", , , , , , , , , , , ,   V &.2.u.k.A : , , , , , , , , , , , , ",
", , , , , , , , , , , + = V } 4.u.h.] # > , , , , , , , , , , , ",
", , , , , , , , , , , O t t V =.r.' N = : , , , , , , , , , , , ",
", , , , , , , , , , O 4 G L 7 v S a U x * > , , , , , 1 - : , , ",
", , , , , , , , : O 4 G U #.h e q H [ L x * O > , , 1 o...: , , ",
", , , , , >     * y G U [ %.0 ` ~ j #.T U c 7 $   % X.n...+ , , ",
", , , , > w <.<.w.a U #.&.z ^ q.8.m I %.| C t b S $.p.n...: , , ",
", , , , i a.x.d.d.*.t h 8 ^ 9.Q / 7.m 0 g 8 H | -.t.g.b.P : , , ",
", , , % y.v.s.u.t.4.K e ` q.Q W R ( 0._ 3 T =.-.r.d.b.<.% , , , ",
", , : f k.l.u.1.%.| j q ~ 8./ R E ) 6.! 6 { u.p.p.g.x...O , , , ",
", ,   y.b.u.4.#.Y g p C d F 7.( ) 5.n j C a *.h.h.z. .o , , , , ",
", ,   y.b.>.s 5 k l U } #.I m 0.6.n O.| [ H C P A A + , , , , , ",
", ,   y.a.0 : : # = x U Y %.0 _ ! j | Y J g & @ : : , , , , , , ",
", ,   ;.i > , , > : * x L +.h 9 3 C [ J u # > , , , , , , , , , ",
", , o X > , , , , , : * c V s @.B t J u # > , , , , , , , , , , ",
", , , , , , , , , , , O 7 S 3.t.#.l l & > , , , , , , , , , , , ",
", , , , , , , , , , , > $ w.d.u.&.[ y @ , , , , , , , , , , , , ",
", , , , , , , , , , , , o <.f.u.2.&.r : , , , , , , , , , , , , ",
", , , , , , , , , , , , o ;.x.d.p.t.M : , , , , , , , , , , , , ",
", , , , , , , , , , , , , % ,.v.c.f.i.A > , , , , , , , , , , , ",
", , , , , , , , , , , , , , % ;.y.n.n.v.Z < , , , , , , , , , , ",
", , , , , , , , , , , , , , , o 0 ......D . , , , , , , , , , , ",
", , , , , , , , , , , , , , , , > : + + : , , , , , , , , , , , ",
", , , , , , , , , , , , , , , , , , , , , , , , , , , , , , , , ",
", , , , , , , , , , , , , , , , , , , , , , , , , , , , , , , , "
};
