/* XPM */
static char *_2f9547f53034712cdebf67b77f85ccb7V2rmZw3FmH5Wqvm[] = {
/* columns rows colors chars-per-pixel */
"32 32 174 2 ",
"   c #3E094F",
".  c #3B094C",
"X  c #320A3E",
"o  c #2E0B38",
"O  c #2E0B39",
"+  c #2D0A38",
"@  c #2D0A37",
"#  c #2E0A38",
"$  c #370A45",
"%  c #3D094E",
"&  c #310B3C",
"*  c #231A25",
"=  c #231F23",
"-  c #221E21",
";  c #211E21",
":  c #211E22",
">  c #1B171A",
",  c #211D21",
"<  c #221E22",
"1  c #221F22",
"2  c #171316",
"3  c #1D191C",
"4  c #242024",
"5  c #251229",
"6  c #390949",
"7  c #3D094D",
"8  c #2A0D33",
"9  c #272328",
"0  c #272327",
"q  c #282529",
"w  c #282428",
"e  c #1D181C",
"r  c #1C181C",
"t  c #272428",
"y  c #191418",
"u  c #1F1B1E",
"i  c #282528",
"p  c #242124",
"a  c #2D292E",
"s  c #221923",
"d  c #340842",
"f  c #2D0D36",
"g  c #201B20",
"h  c #141013",
"j  c #151114",
"k  c #161315",
"l  c #141113",
"z  c #0F0B0E",
"x  c #161214",
"c  c #0F0B0D",
"v  c #100C0E",
"b  c #151113",
"n  c #110E10",
"m  c #1D191D",
"M  c #211623",
"N  c #360945",
"B  c #340B40",
"V  c #1E121F",
"C  c #110C0F",
"Z  c #110D10",
"A  c #1A1719",
"S  c #1A1619",
"D  c #191619",
"F  c #191518",
"G  c #130F12",
"H  c #161114",
"J  c #26102C",
"K  c #3B094A",
"L  c #2C0C36",
"P  c #241F25",
"I  c #161215",
"U  c #262327",
"Y  c #312D31",
"T  c #302D30",
"R  c #302D31",
"E  c #2E2B2F",
"W  c #1E1B1E",
"Q  c #231725",
"!  c #360944",
"~  c #2B0D34",
"^  c #262226",
"/  c #2F2C30",
"(  c #312E32",
")  c #262326",
"_  c #120E11",
"`  c #272427",
"'  c #221823",
"]  c #350944",
"[  c #191519",
"{  c #322F33",
"}  c #350943",
"|  c #252125",
" . c #161316",
".. c #110D0F",
"X. c #242025",
"o. c #330B40",
"O. c #1E1221",
"+. c #100C0F",
"@. c #161115",
"#. c #27102C",
"$. c #3A094A",
"%. c #2E0D37",
"&. c #211B21",
"*. c #221624",
"=. c #370945",
"-. c #2B0C34",
";. c #171416",
":. c #171417",
">. c #2B282B",
",. c #252225",
"<. c #120F11",
"1. c #2D292D",
"2. c #231F22",
"3. c #340943",
"4. c #310C3D",
"5. c #1F1621",
"6. c #120D10",
"7. c #2B282C",
"8. c #141012",
"9. c #100B0E",
"0. c #310C3C",
"q. c #1F1620",
"w. c #1F1C1F",
"e. c #241228",
"r. c #390948",
"t. c #2D2A2E",
"y. c #272227",
"u. c #221824",
"i. c #2C0C35",
"p. c #252026",
"a. c #221825",
"s. c #3E094E",
"d. c #330B3F",
"f. c #1E1320",
"g. c #26112B",
"h. c #2E0C39",
"j. c #221A22",
"k. c #140F12",
"l. c #231527",
"z. c #370946",
"x. c #2B0D35",
"c. c #211823",
"v. c #3C094C",
"b. c #29112F",
"n. c #29262A",
"m. c #1A161A",
"M. c #171317",
"N. c #2F2B30",
"B. c #312D32",
"V. c #322E33",
"C. c #272429",
"Z. c #261E27",
"A. c #310A3D",
"S. c #201621",
"D. c #28232A",
"F. c #171117",
"G. c #191219",
"H. c #2F2A31",
"J. c #312C33",
"K. c #312C34",
"L. c #322C34",
"P. c #272128",
"I. c #140D13",
"U. c #201A21",
"Y. c #29232A",
"T. c #270E2D",
"R. c #340C41",
"E. c #360E42",
"W. c #3A1247",
"Q. c #3B1347",
"!. c #380F44",
"~. c #340C40",
"^. c #360F43",
"/. c white",
/* pixels */
"                                                                ",
"          . X o O O O + + O O O O O @ # O O O O + $ %           ",
"        % & * = - ; : > > , < < ; 1 2 3 ; : - - 4 5 6           ",
"        7 8 9 0 0 q w e r t q q q w y u i q i p a s d           ",
"        % f g h j k l z z l x x x h c v b x 2 n m M N           ",
"        % B V C Z j A S S D S S S S S S S F G z H J K           ",
"        7 L P I h U Y T R T T T T T T R R E W v < Q !           ",
"        % ~ ^ S 2 / ( ( ( ( ( ( ( ( ( ( ( ( ) _ ` ' ]           ",
"        % ~ ) [ 2 / ( ( { { { { { { { { ( ( ^ n 0 ' }           ",
"        % ~ ^ S 2 / ( { { { { { { { { { { ( ) _ 9 ' }           ",
"        7 ~ | 2  ./ ( { { { { { { { { { { ( ) ..X.' }           ",
"        % o.O.+.2 / ( { { { { { { { { { { ( U C @.#.$.          ",
"        % %.&.G 2 / ( { { { { { { { { { { ( U C m *.=.          ",
"        % -.^ D ;./ ( { { { { { { { { { ( ( ) _ 9 ' }           ",
"        % -.^ D :./ ( { { { { { { ( ( ( ( ( ) _ 0 ' }           ",
"        % -.^ D :./ ( { { { { { { ( ( ( >.,.4 <.0 ' }           ",
"        7 8 ^ F 2 / ( { { { { { { ( { 1.W 2.;.Z 0 s 3.          ",
"        % 4.5.6.2 / ( { { { { { { ( { 7.8.b n 9.[ 5 6           ",
"        % 0.q.Z 2 / ( { { { { { { ( ( T w.I 3 +.y e.r.          ",
"        7 ~ ^ F 2 / ( { { { { { { { ( { R t.^ 6.y.u.}           ",
"        % -.^ D :./ ( { { { { { { ( ( ( ( { ^ _ 0 ' ]           ",
"        % -.^ D :./ ( { { { { { { { ( { ( ( ) _ 0 ' }           ",
"        % -.^ D :./ ( { { { { { { { { { { ( ) _ 0 ' }           ",
"        % -.^ S 2 / ( { { { { { { { { { { ( ^ _ 0 ' ]           ",
"        7 i.p.2 2 / ( { { { { { { { { { { ( ) ..4 a.}           ",
"        s.d.f.+.2 / ( { { { { { { { { { { ( U C @.g.$.          ",
"        % h.j.k.2 / ( { { { { { { { { { { ( U ..m l.z.          ",
"        7 x.^ D ;./ ( { { { { { { { { { { ( ) _ 9 c.!           ",
"        v.b.n.m.M.N.B.V.V.V.V.V.V.V.V.V.V.( ^ G C.Z.A.          ",
"        $.S.D.F.G.H.J.K.K.K.K.K.K.K.K.K.K.L.P.I.U.Y.T.          ",
"        7 R.E.X o.W.Q.Q.Q.Q.Q.Q.Q.Q.Q.Q.Q.Q.!.X ~.^.$           ",
"                                                                "
};
