/* XPM */
static char *result[] = {
/* columns rows colors chars-per-pixel */
"32 32 115 2 ",
"   c #3E094F",
".  c #3D094F",
"X  c #3D094E",
"o  c #3E094E",
"O  c #3C094D",
"+  c #3C0A4D",
"@  c #3B0A4D",
"#  c #390B4B",
"$  c #2D1041",
"%  c #25133B",
"&  c #25143B",
"*  c #340D46",
"=  c #360C48",
"-  c #211637",
";  c #191E32",
":  c #594A4E",
">  c #652E39",
",  c #472634",
"<  c #1E1834",
"1  c #330E45",
"2  c #360C49",
"3  c #201736",
"4  c #171A2C",
"5  c #79716A",
"6  c #C79D90",
"7  c #D94C4C",
"8  c #CA5351",
"9  c #562A37",
"0  c #211835",
"q  c #241539",
"w  c #1A1D2F",
"e  c #682F3A",
"r  c #D57067",
"t  c #D3756F",
"y  c #D95654",
"u  c #DFA08D",
"i  c #BA5957",
"p  c #241D32",
"a  c #2A123E",
"s  c #330D46",
"d  c #1C1A32",
"f  c #443042",
"g  c #AD5258",
"h  c #DF6C64",
"j  c #DD504E",
"k  c #D85151",
"l  c #D5978A",
"z  c #BC6B68",
"x  c #463041",
"c  c #15192E",
"v  c #320F45",
"b  c #2F0F43",
"n  c #221D32",
"m  c #9D434C",
"M  c #AB5F65",
"N  c #BFAA9E",
"B  c #C47D7A",
"V  c #CA4A4D",
"C  c #A4525B",
"Z  c #A78284",
"A  c #826971",
"S  c #242032",
"D  c #2F1043",
"F  c #1D1734",
"G  c #4B2736",
"H  c #8B3E47",
"J  c #7F5463",
"K  c #815462",
"L  c #824B5B",
"P  c #865E6A",
"I  c #9D8387",
"U  c #7A616B",
"Y  c #221E33",
"T  c #340D47",
"R  c #201537",
"E  c #191B32",
"W  c #30293A",
"Q  c #332A3C",
"!  c #33293B",
"~  c #31273A",
"^  c #312639",
"/  c #241F34",
"(  c #201536",
")  c #390B4A",
"_  c #380C4A",
"`  c #211636",
"'  c #1C2133",
"]  c #595760",
"[  c #6A666C",
"{  c #4D4D56",
"}  c #171B30",
"|  c #27133D",
" . c #221437",
".. c #43414F",
"X. c #AB9C99",
"o. c #D1C0AA",
"O. c #76706C",
"+. c #201836",
"@. c #3B0A4C",
"#. c #330E46",
"$. c #26123C",
"%. c #614763",
"&. c #785D6D",
"*. c #321D42",
"=. c #2E0F42",
"-. c #360D48",
";. c #3C094E",
":. c #330F46",
">. c #320C42",
",. c #310C42",
"<. c #370C49",
"1. c #3A0A4C",
"2. c #3B0B4D",
"3. c #3B0B4C",
"4. c white",
/* pixels */
"                                                                ",
"                                                                ",
"                                                                ",
"                                                                ",
"                                                                ",
"                                                                ",
"                                                                ",
"                                                                ",
"                                                                ",
"                            . X X o                             ",
"                          X O + @ + X                           ",
"                      . X # $ % % & * X                         ",
"                      X = - ; : > , < 1 . .                     ",
"                      2 3 4 5 6 7 8 9 0 = X                     ",
"                    O q w e r t y u i p a +                     ",
"                  . s d f g h j k l z x c v X                   ",
"                  o b n m M N B V C Z A S D X                   ",
"                  . = F G H J K L P I U Y b X                   ",
"                    X T R E W Q ! ~ ^ / ( )                     ",
"                    . . _ ` ' ] [ { } | _ o                     ",
"                      X *  ...X.o.O.+.v @.                      ",
"                      X #.b $.%.&.*.=.-.;.                      ",
"                        # #.:.>.,.T <.O                         ",
"                        X @ 1.2.3.+ X                           ",
"                                                                ",
"                                                                ",
"                                                                ",
"                                                                ",
"                                                                ",
"                                                                ",
"                                                                ",
"                                                                "
};
