/* XPM */
static char *result[] = {
/* columns rows colors chars-per-pixel */
"32 32 242 2 ",
"   c #3E094F",
".  c #3D0A4C",
"X  c #3B0939",
"o  c #3B0A31",
"O  c #390B31",
"+  c #390A33",
"@  c #3C0934",
"#  c #3D0949",
"$  c #3D0A4B",
"%  c #440D2D",
"&  c #711427",
"*  c #84162A",
"=  c #7B1826",
"-  c #7C1626",
";  c #771827",
":  c #550F2A",
">  c #3E0A48",
",  c #3D094C",
"<  c #450C2C",
"1  c #741626",
"2  c #9D1A31",
"3  c #911A30",
"4  c #530C18",
"5  c #3D0814",
"6  c #3C0912",
"7  c #611321",
"8  c #520E2B",
"9  c #3D0A48",
"0  c #3B0A38",
"q  c #661021",
"w  c #981B2F",
"e  c #901A30",
"r  c #4F0D16",
"t  c #0F0304",
"y  c #050103",
"u  c #060102",
"i  c #210507",
"p  c #601523",
"a  c #53102C",
"s  c #3C0A4A",
"d  c #491024",
"f  c #7A1022",
"g  c #9A1B31",
"h  c #7A1827",
"j  c #1E0306",
"k  c #050606",
"l  c #030103",
"z  c #030102",
"x  c #090506",
"c  c #400911",
"v  c #7A182A",
"b  c #3A0839",
"n  c #3B0A43",
"m  c #5A0E1C",
"M  c #7B1526",
"N  c #8C162A",
"B  c #7C1727",
"V  c #1E0A0D",
"C  c #7F7F80",
"Z  c gray7",
"A  c #050404",
"S  c #747374",
"D  c #5B2B30",
"F  c #791A2B",
"G  c #390836",
"H  c #3C0A44",
"J  c #5B0D1D",
"K  c #5D0D1A",
"L  c #791327",
"P  c #7C1627",
"I  c #888989",
"U  c #131312",
"Y  c #040404",
"T  c #7C7B7C",
"R  c #5B2E31",
"E  c #761929",
"W  c #3A0836",
"Q  c #3D094B",
"!  c #480F2A",
"~  c #4D0A19",
"^  c #761425",
"/  c #801625",
"(  c #380911",
")  c #0E0A0A",
"_  c #040202",
"`  c #020101",
"'  c #0C0909",
"]  c #3C0A10",
"[  c #68121E",
"{  c #3B0938",
"}  c #3D094A",
"|  c #3D093D",
" . c #570F27",
".. c #731426",
"X. c #32080F",
"o. c #070202",
"O. c #040102",
"+. c #200407",
"@. c #51101A",
"#. c #4C0F25",
"$. c #3C0A47",
"%. c #3D094E",
"&. c #3E0C3C",
"*. c #500B19",
"=. c #6F0E1F",
"-. c #701321",
";. c #3D080E",
":. c #37070E",
">. c #5A1019",
",. c #520E1E",
"<. c #3D0B42",
"1. c #3E094E",
"2. c #3C0C46",
"3. c #4A0F24",
"4. c #7B1629",
"5. c #861326",
"6. c #96192C",
"7. c #931B2E",
"8. c #941B2E",
"9. c #981B2D",
"0. c #7A1629",
"q. c #460C2D",
"w. c #3C0A2F",
"e. c #751725",
"r. c #A01B30",
"t. c #A01B2E",
"y. c #9E1C30",
"u. c #9E1B30",
"i. c #A01B2F",
"p. c #A3192F",
"a. c #991B31",
"s. c #6A1122",
"d. c #3A0A38",
"f. c #3D094D",
"g. c #410A24",
"h. c #841828",
"j. c #9D1D2D",
"k. c #A11B2F",
"l. c #A21A30",
"z. c #A21931",
"x. c #A11A32",
"c. c #9E1C31",
"v. c #9F1A30",
"b. c #791523",
"n. c #390A31",
"m. c #3B0941",
"M. c #5D1123",
"N. c #9A1A31",
"B. c #A21A32",
"V. c #831828",
"C. c #3D0A31",
"Z. c #3A0937",
"A. c #6A1021",
"S. c #9B1B32",
"D. c #A01B31",
"F. c #9F1B2F",
"G. c #991A2C",
"H. c #8F1629",
"J. c #9F1B31",
"K. c #95192E",
"L. c #560E28",
"P. c #3B0948",
"I. c #3B0935",
"U. c #A11A30",
"Y. c #A01C30",
"T. c #8A1629",
"R. c #7A1223",
"E. c #9E1A33",
"W. c #8D172A",
"Q. c #5E0D1F",
"!. c #3A0942",
"~. c #3C0A49",
"^. c #4B0E27",
"/. c #751524",
"(. c #8F152B",
"). c #99192F",
"_. c #95182C",
"`. c #94152A",
"'. c #6E1223",
"]. c #560C18",
"[. c #8B1528",
"{. c #951B31",
"}. c #831227",
"|. c #591020",
" X c #390942",
".X c #3B0A40",
"XX c #5D0C1B",
"oX c #7C1525",
"OX c #811329",
"+X c #8C152B",
"@X c #8F162A",
"#X c #761525",
"$X c #3B0912",
"%X c #2B050A",
"&X c #6B101F",
"*X c #831524",
"=X c #7A1723",
"-X c #5E0D20",
";X c #3B0842",
":X c #3C0949",
">X c #4C1127",
",X c #560916",
"<X c #701527",
"1X c #761323",
"2X c #7D1526",
"3X c #4B0914",
"4X c #0C0203",
"5X c #120407",
"6X c #590F1E",
"7X c #741423",
"8X c #5F0B16",
"9X c #501129",
"0X c #3C0B43",
"qX c #390B1A",
"wX c #53111F",
"eX c #4B1021",
"rX c #60111E",
"tX c #3E0B18",
"yX c #200922",
"uX c #110618",
"iX c #27060A",
"pX c #570F1D",
"aX c #501323",
"sX c #3B0B41",
"dX c #3C094A",
"fX c #3B0945",
"gX c #330B3D",
"hX c #19040A",
"jX c #340935",
"kX c #380947",
"lX c #1F091C",
"zX c #340936",
"xX c #3B0947",
"cX c #1C0727",
"vX c #30083E",
"bX c #1B0626",
"nX c #330942",
"mX c #2E083D",
"MX c #360846",
"NX c #2E073D",
"BX c #380849",
"VX c white",
/* pixels */
"                                                                ",
"                                                                ",
"                                                                ",
"                                                                ",
"                                                                ",
"                        . X o O + @ #                           ",
"                      $ % & * = - ; : >                         ",
"                    , < 1 2 3 4 5 6 7 8 9                       ",
"                    0 q w e r t y u i p a #                     ",
"                  s d f g h j k l z x c v b                     ",
"                  n m M N B V C Z A S D F G                     ",
"                  H J K L P V I U Y T R E W                     ",
"                  Q ! ~ ^ / ( ) _ ` ' ] [ {                     ",
"                    } |  ./ ..X.o.O.+.@.#.$.                    ",
"                      %.&.*.=.-.;.:.>.,.<.1.                    ",
"                      2.3.4.5.6.7.8.9.0.q.$                     ",
"                    1.w.e.r.t.y.u.i.p.a.s.d.                    ",
"                    f.g.h.j.k.l.z.x.c.v.b.n.                    ",
"                    m.M.N.r.B.r.t.v.r.t.V.C.%.                  ",
"                    Z.A.S.D.B.F.G.H.J.r.K.L.P.                  ",
"                    I.A.S.U.Y.u.T.R.a.E.W.Q.!.                  ",
"                  ~.^./.(.)._.`.'.].[.{.}.|. X                  ",
"                  .XXXoXOX+X@X#X$X%X&X*X=X-X;X                  ",
"                  :X>X,X<X1X2X3X4X5X6X7X8X9X:X                  ",
"                    0XqXwXeXrXtXyXuXiXpXaXsX                    ",
"                      dXfXgXhXjX%.kXlXzXxX                      ",
"                      1.1.f.cXvX  %.bXnX%.                      ",
"                            mXMX  1.NXBX                        ",
"                            %.%.    %.                          ",
"                                                                ",
"                                                                ",
"                                                                "
};
