/* XPM */
static char *_b11d2b9318e4292b0f7e3b4036555bacDD0TUexGcTuqY8T[] = {
/* columns rows colors chars-per-pixel */
"32 32 16 1 ",
"  c #363636",
". c #373737",
"X c #3B3B3B",
"o c #434343",
"O c #414647",
"+ c #484E4F",
"@ c #4C5253",
"# c #505050",
"$ c #535353",
"% c #575757",
"& c #5A5A5A",
"* c #5F5F5F",
"= c #626262",
"- c #686868",
"; c #797979",
": c #808080",
/* pixels */
";;;;;;oooooooooooooooooooooooooo",
"::::::oooooooooooooooooo:::::ooo",
"::::oooooo::::::::::::::::::::oo",
"-*--oooooo-------------*******oo",
"----oooooo----------**********oo",
"----ooooooo---------**********oo",
"-----oooooo--------***********oo",
"-----ooooooo------------******oo",
"------ooooooo--------------***oo",
"-------oooooo-----------------oo",
"----------ooo*----------------oo",
"-**-------ooo-----------------oo",
"***--**---ooooo---------------oo",
"**********ooooo---------------oo",
"**********oooo----------------oo",
"************------------------oo",
"************------------------=o",
"**------***-------------------=o",
"----------------------------@@+o",
"------------------------oooooooo",
"***********************ooooooooo",
"***********************oo*ooooOo",
"**********************ooo*****&.",
"**********************oo******&.",
"**********************oo******&.",
"*********************oo*******&.",
"******************ooooo*****%%#o",
"******************ooooo***%%%%oo",
"%%%%%%%%%%%%%%%%%ooooooo%%%%%ooo",
"#################oooooooo###oooo",
".....................ooooooooooo",
"oooXXXXXXXXXXXXXXXXXXooooooooooo"
};
